<svg xmlns="http://www.w3.org/2000/svg" width="534" height="442" fill="none" viewBox="0 0 534 442"><path fill="#1381D8" d="M0 0H534V442H0V0Z"/><rect width="401.585" height="200.792" x="66" y="146.194" fill="#fff" rx="3.718"/><rect width="202.652" height="44.62" x="66" y="96" fill="#fff" rx="3.718"/><rect width="22.31" height="22.31" x="77.156" y="107.153" fill="#E2E4E7"/><rect width="22.31" height="22.31" x="127.352" y="107.153" fill="#E2E4E7"/><rect width="22.31" height="22.31" x="162.68" y="107.153" fill="#E2E4E7"/><rect width="22.31" height="22.31" x="198.004" y="107.153" fill="#E2E4E7"/><rect width="22.31" height="22.31" x="233.328" y="107.153" fill="#E2E4E7"/><line x1="272.215" x2="272.215" y1="261.469" y2="233.374" stroke="#1E1E1E" stroke-width="2.789"/><line x1="263.949" x2="263.949" y1="261.469" y2="233.374" stroke="#1E1E1E" stroke-width="2.789"/><line x1="278.566" x2="262.04" y1="233.115" y2="233.115" stroke="#1E1E1E" stroke-width="2.789"/><path fill="#1E1E1E" stroke="#1E1E1E" stroke-width="2.789" d="M261.472 240.809V248.378C257.888 247.722 255.172 244.583 255.172 240.809C255.172 237.035 257.888 233.896 261.472 233.24V240.809Z"/></svg>