<svg xmlns="http://www.w3.org/2000/svg" width="534" height="442" fill="none" viewBox="0 0 534 442"><path fill="#1381D8" d="M0 0H534V442H0V0Z"/><rect width="381.368" height="381.368" x="76" y="60.377" fill="#fff"/><rect width="337.228" height="42.374" x="98.953" y="81.564" fill="#E2E4E7"/><rect width="296.62" height="63.561" x="118.375" y="378.184" fill="#E2E4E7"/><rect width="105.936" height="63.561" x="139.562" y="293.434" fill="#E2E4E7"/><rect width="105.936" height="63.561" x="287.871" y="293.434" fill="#E2E4E7"/><rect width="381.368" height="127.123" x="76" y="145.124" fill="#E2E4E7"/><rect width="22.07" height="22.07" x="181.496" y="314.181" stroke="#1E1E1E" stroke-width="2.648" rx="2.207"/><path stroke="#1E1E1E" stroke-linecap="round" stroke-linejoin="bevel" stroke-width="2.648" d="M181.938 332.278L188.517 328.047C189.145 327.643 189.96 327.678 190.551 328.135L193.467 330.385C194.15 330.912 195.113 330.868 195.746 330.283L203.125 323.45"/><rect width="22.07" height="22.07" x="329.805" y="314.181" stroke="#1E1E1E" stroke-width="2.648" rx="2.207"/><path stroke="#1E1E1E" stroke-linecap="round" stroke-linejoin="bevel" stroke-width="2.648" d="M330.246 332.278L336.826 328.047C337.454 327.643 338.268 327.678 338.859 328.135L341.776 330.385C342.459 330.912 343.422 330.868 344.054 330.283L351.433 323.45"/><rect width="22.07" height="22.07" x="255.648" y="197.651" stroke="#1E1E1E" stroke-width="2.648" rx="2.207"/><path fill="#1E1E1E" d="M263.152 213.983V203.39L271.98 208.686L263.152 213.983Z"/><line x1="271.832" x2="271.832" y1="424.089" y2="397.409" stroke="#1E1E1E" stroke-width="2.648"/><line x1="263.984" x2="263.984" y1="424.089" y2="397.409" stroke="#1E1E1E" stroke-width="2.648"/><line x1="277.867" x2="262.173" y1="397.162" y2="397.162" stroke="#1E1E1E" stroke-width="2.648"/><path fill="#1E1E1E" stroke="#1E1E1E" stroke-width="2.648" d="M261.632 404.471V411.659C258.228 411.036 255.648 408.054 255.648 404.471C255.648 400.887 258.228 397.906 261.632 397.283V404.471Z"/><circle cx="266.683" cy="102.751" r="12.801" stroke="#1E1E1E" stroke-width="2.648"/><path fill="#1E1E1E" d="M264.042 101.604L271.9 96.3338L269.342 104.682L261.475 109.896L264.042 101.604Z"/></svg>